<svg xmlns="http://www.w3.org/2000/svg" viewBox="0 0 700 340" font-family="ui-sans-serif,system-ui,sans-serif">
  <rect width="700" height="340" fill="#ffffff"/>
  <!-- ── 7a: было (X = прямоугольник 38×50) ── -->
  <text x="30" y="40" fill="#64748b" font-size="20" font-weight="600">7a — было · X-прямоугольник (буква X)</text>
  <g transform="translate(90,90) scale(1.55)">
    <g fill="none" stroke="#2B333D" stroke-width="6" stroke-linecap="round" stroke-linejoin="round">
      <path d="M8.66 35 L8.66 -5 L34.64 20 L60.62 -5 L60.62 35"/>
      <path d="M77.94 -5 L95.26 5 L112.58 -5 M95.26 5 L95.26 35"/>
      <path d="M199.19 -5 L216.51 5 L216.51 25 L199.19 35 L181.87 25 L181.87 5 Z"/>
      <path d="M233.83 35 L233.83 -5 L268.47 35 L268.47 -5"/>
    </g>
    <path d="M128 -10 L166 40 M166 -10 L128 40" fill="none" stroke="#F26A1B" stroke-width="6" stroke-linecap="round"/>
    <g fill="#F26A1B"><circle cx="128" cy="-10" r="3.6"/><circle cx="166" cy="40" r="3.6"/><circle cx="166" cy="-10" r="3.6"/><circle cx="128" cy="40" r="3.6"/></g>
  </g>
  <!-- ── 7d: стало (X = диагонали квадрата 50×50 → знак ×) ── -->
  <text x="30" y="210" fill="#64748b" font-size="20" font-weight="600">7d — стало · X-квадрат (знак умножения ×)</text>
  <g transform="translate(90,260) scale(1.55)">
    <g fill="none" stroke="#2B333D" stroke-width="6" stroke-linecap="round" stroke-linejoin="round">
      <path d="M8.66 35 L8.66 -5 L34.64 20 L60.62 -5 L60.62 35"/>
      <path d="M77.94 -5 L95.26 5 L112.58 -5 M95.26 5 L95.26 35"/>
      <path d="M199.19 -5 L216.51 5 L216.51 25 L199.19 35 L181.87 25 L181.87 5 Z"/>
      <path d="M233.83 35 L233.83 -5 L268.47 35 L268.47 -5"/>
    </g>
    <path d="M122 -10 L172 40 M172 -10 L122 40" fill="none" stroke="#F26A1B" stroke-width="6" stroke-linecap="round"/>
    <g fill="#F26A1B"><circle cx="122" cy="-10" r="3.6"/><circle cx="172" cy="-10" r="3.6"/><circle cx="122" cy="40" r="3.6"/><circle cx="172" cy="40" r="3.6"/></g>
  </g>
</svg>
