<svg xmlns="http://www.w3.org/2000/svg" viewBox="0 0 212 76">
  <g transform="translate(17,18)" fill="none" stroke="#2B333D" stroke-width="6" stroke-linecap="round" stroke-linejoin="round">
    <path d="M0 40 V0 L13 18 L26 0 V40"/>
    <path d="M38 0 L51 18 L64 0 M51 18 V40"/>
    <rect x="114" y="0" width="26" height="40" rx="13"/>
    <path d="M152 40 V0 L178 40 V0"/>
  </g>
  <g transform="translate(17,18)" fill="none" stroke="#F26A1B" stroke-width="6" stroke-linecap="round" stroke-linejoin="round">
    <path d="M76 0 C89 16 89 24 102 40"/>
    <path d="M102 0 C89 16 89 24 76 40"/>
  </g>
  <g transform="translate(17,18)" fill="#F26A1B">
    <circle cx="76" cy="0" r="4"/>
    <circle cx="102" cy="0" r="4"/>
    <circle cx="76" cy="40" r="4"/>
    <circle cx="102" cy="40" r="4"/>
  </g>
</svg>
