<svg xmlns="http://www.w3.org/2000/svg" viewBox="0 -18 286 76">
  <path d="M8.66 35 L8.66 -5 L34.64 20 L60.62 -5 L60.62 35 M77.94 -5 L95.26 5 L112.58 -5 M95.26 5 L95.26 35 M199.19 -5 L216.51 5 L216.51 25 L199.19 35 L181.87 25 L181.87 5 Z M233.83 35 L233.83 -5 L268.47 35 L268.47 -5" fill="none" stroke="#2B333D" stroke-width="6" stroke-linecap="round" stroke-linejoin="round"/>
  <path d="M129.9 -5 L164.54 35 M164.54 -5 L129.9 35" fill="none" stroke="#F26A1B" stroke-width="6" stroke-linecap="round"/>
  <circle cx="129.9" cy="-5" r="3.6" fill="#F26A1B"/><circle cx="164.54" cy="35" r="3.6" fill="#F26A1B"/><circle cx="164.54" cy="-5" r="3.6" fill="#F26A1B"/><circle cx="129.9" cy="35" r="3.6" fill="#F26A1B"/>
</svg>