<svg xmlns="http://www.w3.org/2000/svg" viewBox="-30 -28 330 130">
  <path d="M-25.98 -25 L-17.32 -20 L-17.32 -10 L-25.98 -5 L-34.64 -10 L-34.64 -20 Z M-8.66 -25 L0.0 -20 L0.0 -10 L-8.66 -5 L-17.32 -10 L-17.32 -20 Z M8.66 -25 L17.32 -20 L17.32 -10 L8.66 -5 L0.0 -10 L0.0 -20 Z M25.98 -25 L34.64 -20 L34.64 -10 L25.98 -5 L17.32 -10 L17.32 -20 Z M43.3 -25 L51.96 -20 L51.96 -10 L43.3 -5 L34.64 -10 L34.64 -20 Z M60.62 -25 L69.28 -20 L69.28 -10 L60.62 -5 L51.96 -10 L51.96 -20 Z M77.94 -25 L86.6 -20 L86.6 -10 L77.94 -5 L69.28 -10 L69.28 -20 Z M95.26 -25 L103.92 -20 L103.92 -10 L95.26 -5 L86.6 -10 L86.6 -20 Z M112.58 -25 L121.24 -20 L121.24 -10 L112.58 -5 L103.92 -10 L103.92 -20 Z M129.9 -25 L138.56 -20 L138.56 -10 L129.9 -5 L121.24 -10 L121.24 -20 Z M147.22 -25 L155.88 -20 L155.88 -10 L147.22 -5 L138.56 -10 L138.56 -20 Z M164.54 -25 L173.21 -20 L173.21 -10 L164.54 -5 L155.88 -10 L155.88 -20 Z M181.87 -25 L190.53 -20 L190.53 -10 L181.87 -5 L173.21 -10 L173.21 -20 Z M199.19 -25 L207.85 -20 L207.85 -10 L199.19 -5 L190.53 -10 L190.53 -20 Z M216.51 -25 L225.17 -20 L225.17 -10 L216.51 -5 L207.85 -10 L207.85 -20 Z M233.83 -25 L242.49 -20 L242.49 -10 L233.83 -5 L225.17 -10 L225.17 -20 Z M251.15 -25 L259.81 -20 L259.81 -10 L251.15 -5 L242.49 -10 L242.49 -20 Z M268.47 -25 L277.13 -20 L277.13 -10 L268.47 -5 L259.81 -10 L259.81 -20 Z M285.79 -25 L294.45 -20 L294.45 -10 L285.79 -5 L277.13 -10 L277.13 -20 Z M-34.64 -10 L-25.98 -5 L-25.98 5 L-34.64 10 L-43.3 5 L-43.3 -5 Z M-17.32 -10 L-8.66 -5 L-8.66 5 L-17.32 10 L-25.98 5 L-25.98 -5 Z M0.0 -10 L8.66 -5 L8.66 5 L0.0 10 L-8.66 5 L-8.66 -5 Z M17.32 -10 L25.98 -5 L25.98 5 L17.32 10 L8.66 5 L8.66 -5 Z M34.64 -10 L43.3 -5 L43.3 5 L34.64 10 L25.98 5 L25.98 -5 Z M51.96 -10 L60.62 -5 L60.62 5 L51.96 10 L43.3 5 L43.3 -5 Z M69.28 -10 L77.94 -5 L77.94 5 L69.28 10 L60.62 5 L60.62 -5 Z M86.6 -10 L95.26 -5 L95.26 5 L86.6 10 L77.94 5 L77.94 -5 Z M103.92 -10 L112.58 -5 L112.58 5 L103.92 10 L95.26 5 L95.26 -5 Z M121.24 -10 L129.9 -5 L129.9 5 L121.24 10 L112.58 5 L112.58 -5 Z M138.56 -10 L147.22 -5 L147.22 5 L138.56 10 L129.9 5 L129.9 -5 Z M155.88 -10 L164.54 -5 L164.54 5 L155.88 10 L147.22 5 L147.22 -5 Z M173.21 -10 L181.87 -5 L181.87 5 L173.21 10 L164.54 5 L164.54 -5 Z M190.53 -10 L199.19 -5 L199.19 5 L190.53 10 L181.87 5 L181.87 -5 Z M207.85 -10 L216.51 -5 L216.51 5 L207.85 10 L199.19 5 L199.19 -5 Z M225.17 -10 L233.83 -5 L233.83 5 L225.17 10 L216.51 5 L216.51 -5 Z M242.49 -10 L251.15 -5 L251.15 5 L242.49 10 L233.83 5 L233.83 -5 Z M259.81 -10 L268.47 -5 L268.47 5 L259.81 10 L251.15 5 L251.15 -5 Z M277.13 -10 L285.79 -5 L285.79 5 L277.13 10 L268.47 5 L268.47 -5 Z M-25.98 5 L-17.32 10 L-17.32 20 L-25.98 25 L-34.64 20 L-34.64 10 Z M-8.66 5 L0.0 10 L0.0 20 L-8.66 25 L-17.32 20 L-17.32 10 Z M8.66 5 L17.32 10 L17.32 20 L8.66 25 L0.0 20 L0.0 10 Z M25.98 5 L34.64 10 L34.64 20 L25.98 25 L17.32 20 L17.32 10 Z M43.3 5 L51.96 10 L51.96 20 L43.3 25 L34.64 20 L34.64 10 Z M60.62 5 L69.28 10 L69.28 20 L60.62 25 L51.96 20 L51.96 10 Z M77.94 5 L86.6 10 L86.6 20 L77.94 25 L69.28 20 L69.28 10 Z M95.26 5 L103.92 10 L103.92 20 L95.26 25 L86.6 20 L86.6 10 Z M112.58 5 L121.24 10 L121.24 20 L112.58 25 L103.92 20 L103.92 10 Z M129.9 5 L138.56 10 L138.56 20 L129.9 25 L121.24 20 L121.24 10 Z M147.22 5 L155.88 10 L155.88 20 L147.22 25 L138.56 20 L138.56 10 Z M164.54 5 L173.21 10 L173.21 20 L164.54 25 L155.88 20 L155.88 10 Z M181.87 5 L190.53 10 L190.53 20 L181.87 25 L173.21 20 L173.21 10 Z M199.19 5 L207.85 10 L207.85 20 L199.19 25 L190.53 20 L190.53 10 Z M216.51 5 L225.17 10 L225.17 20 L216.51 25 L207.85 20 L207.85 10 Z M233.83 5 L242.49 10 L242.49 20 L233.83 25 L225.17 20 L225.17 10 Z M251.15 5 L259.81 10 L259.81 20 L251.15 25 L242.49 20 L242.49 10 Z M268.47 5 L277.13 10 L277.13 20 L268.47 25 L259.81 20 L259.81 10 Z M285.79 5 L294.45 10 L294.45 20 L285.79 25 L277.13 20 L277.13 10 Z M-34.64 20 L-25.98 25 L-25.98 35 L-34.64 40 L-43.3 35 L-43.3 25 Z M-17.32 20 L-8.66 25 L-8.66 35 L-17.32 40 L-25.98 35 L-25.98 25 Z M0.0 20 L8.66 25 L8.66 35 L0.0 40 L-8.66 35 L-8.66 25 Z M17.32 20 L25.98 25 L25.98 35 L17.32 40 L8.66 35 L8.66 25 Z M34.64 20 L43.3 25 L43.3 35 L34.64 40 L25.98 35 L25.98 25 Z M51.96 20 L60.62 25 L60.62 35 L51.96 40 L43.3 35 L43.3 25 Z M69.28 20 L77.94 25 L77.94 35 L69.28 40 L60.62 35 L60.62 25 Z M86.6 20 L95.26 25 L95.26 35 L86.6 40 L77.94 35 L77.94 25 Z M103.92 20 L112.58 25 L112.58 35 L103.92 40 L95.26 35 L95.26 25 Z M121.24 20 L129.9 25 L129.9 35 L121.24 40 L112.58 35 L112.58 25 Z M138.56 20 L147.22 25 L147.22 35 L138.56 40 L129.9 35 L129.9 25 Z M155.88 20 L164.54 25 L164.54 35 L155.88 40 L147.22 35 L147.22 25 Z M173.21 20 L181.87 25 L181.87 35 L173.21 40 L164.54 35 L164.54 25 Z M190.53 20 L199.19 25 L199.19 35 L190.53 40 L181.87 35 L181.87 25 Z M207.85 20 L216.51 25 L216.51 35 L207.85 40 L199.19 35 L199.19 25 Z M225.17 20 L233.83 25 L233.83 35 L225.17 40 L216.51 35 L216.51 25 Z M242.49 20 L251.15 25 L251.15 35 L242.49 40 L233.83 35 L233.83 25 Z M259.81 20 L268.47 25 L268.47 35 L259.81 40 L251.15 35 L251.15 25 Z M277.13 20 L285.79 25 L285.79 35 L277.13 40 L268.47 35 L268.47 25 Z M-25.98 35 L-17.32 40 L-17.32 50 L-25.98 55 L-34.64 50 L-34.64 40 Z M-8.66 35 L0.0 40 L0.0 50 L-8.66 55 L-17.32 50 L-17.32 40 Z M8.66 35 L17.32 40 L17.32 50 L8.66 55 L0.0 50 L0.0 40 Z M25.98 35 L34.64 40 L34.64 50 L25.98 55 L17.32 50 L17.32 40 Z M43.3 35 L51.96 40 L51.96 50 L43.3 55 L34.64 50 L34.64 40 Z M60.62 35 L69.28 40 L69.28 50 L60.62 55 L51.96 50 L51.96 40 Z M77.94 35 L86.6 40 L86.6 50 L77.94 55 L69.28 50 L69.28 40 Z M95.26 35 L103.92 40 L103.92 50 L95.26 55 L86.6 50 L86.6 40 Z M112.58 35 L121.24 40 L121.24 50 L112.58 55 L103.92 50 L103.92 40 Z M129.9 35 L138.56 40 L138.56 50 L129.9 55 L121.24 50 L121.24 40 Z M147.22 35 L155.88 40 L155.88 50 L147.22 55 L138.56 50 L138.56 40 Z M164.54 35 L173.21 40 L173.21 50 L164.54 55 L155.88 50 L155.88 40 Z M181.87 35 L190.53 40 L190.53 50 L181.87 55 L173.21 50 L173.21 40 Z M199.19 35 L207.85 40 L207.85 50 L199.19 55 L190.53 50 L190.53 40 Z M216.51 35 L225.17 40 L225.17 50 L216.51 55 L207.85 50 L207.85 40 Z M233.83 35 L242.49 40 L242.49 50 L233.83 55 L225.17 50 L225.17 40 Z M251.15 35 L259.81 40 L259.81 50 L251.15 55 L242.49 50 L242.49 40 Z M268.47 35 L277.13 40 L277.13 50 L268.47 55 L259.81 50 L259.81 40 Z M285.79 35 L294.45 40 L294.45 50 L285.79 55 L277.13 50 L277.13 40 Z M-34.64 50 L-25.98 55 L-25.98 65 L-34.64 70 L-43.3 65 L-43.3 55 Z M-17.32 50 L-8.66 55 L-8.66 65 L-17.32 70 L-25.98 65 L-25.98 55 Z M0.0 50 L8.66 55 L8.66 65 L0.0 70 L-8.66 65 L-8.66 55 Z M17.32 50 L25.98 55 L25.98 65 L17.32 70 L8.66 65 L8.66 55 Z M34.64 50 L43.3 55 L43.3 65 L34.64 70 L25.98 65 L25.98 55 Z M51.96 50 L60.62 55 L60.62 65 L51.96 70 L43.3 65 L43.3 55 Z M69.28 50 L77.94 55 L77.94 65 L69.28 70 L60.62 65 L60.62 55 Z M86.6 50 L95.26 55 L95.26 65 L86.6 70 L77.94 65 L77.94 55 Z M103.92 50 L112.58 55 L112.58 65 L103.92 70 L95.26 65 L95.26 55 Z M121.24 50 L129.9 55 L129.9 65 L121.24 70 L112.58 65 L112.58 55 Z M138.56 50 L147.22 55 L147.22 65 L138.56 70 L129.9 65 L129.9 55 Z M155.88 50 L164.54 55 L164.54 65 L155.88 70 L147.22 65 L147.22 55 Z M173.21 50 L181.87 55 L181.87 65 L173.21 70 L164.54 65 L164.54 55 Z M190.53 50 L199.19 55 L199.19 65 L190.53 70 L181.87 65 L181.87 55 Z M207.85 50 L216.51 55 L216.51 65 L207.85 70 L199.19 65 L199.19 55 Z M225.17 50 L233.83 55 L233.83 65 L225.17 70 L216.51 65 L216.51 55 Z M242.49 50 L251.15 55 L251.15 65 L242.49 70 L233.83 65 L233.83 55 Z M259.81 50 L268.47 55 L268.47 65 L259.81 70 L251.15 65 L251.15 55 Z M277.13 50 L285.79 55 L285.79 65 L277.13 70 L268.47 65 L268.47 55 Z" fill="none" stroke="#CBD4DC" stroke-width="0.8"/>
  <path d="M8.66 5 L0.0 10 L0.0 20 L8.66 25 L8.66 35 L0.0 40 L0.0 50 M8.66 5 L17.32 10 L17.32 20 L25.98 25 L34.64 20 L34.64 10 L43.3 5 M43.3 5 L51.96 10 L51.96 20 L43.3 25 L43.3 35 L51.96 40 L51.96 50 M60.62 5 L69.28 10 L69.28 20 L77.94 25 L86.6 20 L86.6 10 L95.26 5 M77.94 25 L77.94 35 L86.6 40 L86.6 50 M164.54 5 L173.21 10 L181.87 5 L190.53 10 L190.53 20 L199.19 25 L199.19 35 L190.53 40 L190.53 50 L181.87 55 L173.21 50 L164.54 55 L155.88 50 L155.88 40 L147.22 35 L147.22 25 L155.88 20 L155.88 10 Z M216.51 5 L207.85 10 L207.85 20 L216.51 25 L216.51 35 L207.85 40 L207.85 50 M216.51 5 L225.17 10 L225.17 20 L233.83 25 L233.83 35 L242.49 40 L242.49 50 M242.49 50 L242.49 40 L251.15 35 L251.15 25 L242.49 20 L242.49 10 L251.15 5" fill="none" stroke="#2B333D" stroke-width="5" stroke-linecap="round" stroke-linejoin="round"/>
  <path d="M112.58 5 L138.56 50 M138.56 5 L112.58 50" fill="none" stroke="#F26A1B" stroke-width="5" stroke-linecap="round"/>
  <circle cx="112.58" cy="5" r="3.6" fill="#F26A1B"/><circle cx="138.56" cy="50" r="3.6" fill="#F26A1B"/><circle cx="138.56" cy="5" r="3.6" fill="#F26A1B"/><circle cx="112.58" cy="50" r="3.6" fill="#F26A1B"/>
</svg>